# xmcd CD database file
#
# Track frame offsets:
#	150
#	16284
#	28771
#	45322
#	59529
#	73058
#	89838
#	105066
#	118200
#	130896
#	147370
#	164929
#
# Disc length: 2516 seconds
#
# Revision: 2
# Processed by: cddbd v1.5.2PL0 Copyright (c) Steve Scherf et al.
# Submitted via: CDex 1.70beta2
#
DISCID=af09d20c
DTITLE=Various Artist - She Was Country When Country Wasn't Cool - A Tribute To Barbara Mandrell
DYEAR=2006
DGENRE=Country
TTITLE0=Kenny Chesney and Reba McEntire - I Was Country When Country Wasn't Cool
TTITLE1=Terri Clark - Sleeping Single In A Double Bed
TTITLE2=LeAnn Rimes - If Loving You Is Wrong, I Don't Wanna Be Right
TTITLE3=Brad Paisley - In Times Like These
TTITLE4=Gretchen Wilson - The Midnight Oil
TTITLE5=Sara Evans - Crackers
TTITLE6=Willie Nelson and Shelby Lynne - This Time I Almost Made It
TTITLE7=Blaine Larsen - I Wish That I Could Fall In Love Today
TTITLE8=Lorrie Morgan - That's What Friends Are For
TTITLE9=Dierks Bentley - Fast Lanes And Country Roads
TTITLE10=Randy Owen - Years
TTITLE11=Various Artist - He Set My Life To Music
EXTD=YEAR: 2006
EXTT0=
EXTT1=
EXTT2=
EXTT3=
EXTT4=
EXTT5=
EXTT6=
EXTT7=
EXTT8=
EXTT9=
EXTT10=
EXTT11=
PLAYORDER=
